<svg xmlns="http://www.w3.org/2000/svg" width="18" height="18">
  <path fill="#3ba55c" fill-rule="evenodd" d="M7.1617 2.1175 6.4271 2.339C5.091 2.7417 4.1097 3.8827 3.9114 5.264 3.607 7.3845 4.2878 9.863 5.9283 12.7044 7.5653 15.5397 9.3671 17.3669 11.3507 18.1662 12.6521 18.6905 14.1397 18.4082 15.1583 17.4434L15.7147 16.9165C16.4604 16.2104 16.5684 15.0613 15.9676 14.2285L14.577 12.3014C14.1919 11.7677 13.51 11.5383 12.8807 11.7307L10.7787 12.3734 10.7244 12.3841C10.4925 12.4179 9.9583 11.9165 9.2919 10.7624 8.5947 9.5549 8.4503 8.8488 8.6427 8.6668L9.7122 7.6695C10.5136 6.9222 10.7504 5.7475 10.3011 4.7479L9.6231 3.2398C9.2009 2.3006 8.1476 1.8204 7.1617 2.1175ZM8.6882 3.66 9.3662 5.1682C9.6356 5.7675 9.4937 6.4718 9.0131 6.9199L7.9411 7.9196C7.2553 8.5682 7.4824 9.6782 8.4042 11.2749 9.2716 12.7771 10.0629 13.5195 10.9131 13.3908L11.0406 13.3635 13.1804 12.7109C13.3901 12.6468 13.6174 12.7233 13.7458 12.9012L15.1363 14.8283C15.4368 15.2447 15.3828 15.8192 15.0099 16.1722L14.4535 16.6992C13.7259 17.3883 12.6634 17.5899 11.7338 17.2154 9.9933 16.5141 8.3484 14.8461 6.816 12.1919 5.2804 9.5322 4.6589 7.2699 4.926 5.4097 5.0676 4.423 5.7686 3.608 6.7229 3.3204L7.4576 3.0989C7.9505 2.9503 8.4771 3.1905 8.6882 3.66Z"/>
</svg>
